# xmcd
#
# Track frame offsets:
#	150
#	9512
#	24857
#	35863
#	49718
#	65049
#	79983
#	90800
#	103902
#	113479
#	127733
#	163247
#	174881
#
# Disc length: 2562 seconds
#
# Revision: 1
# Processed by: cddbd v1.5.1PL2 Copyright (c) Steve Scherf et al.
# Submitted via: EasyCDDAExtractor 8.2.3.1
#
DISCID=980a000d
DTITLE=Jacó e Jacozito - Linha de Fogo
DYEAR=1992
DGENRE=Sertanejo
TTITLE0=Pé quente e pé gelado
TTITLE1=Canto dos ventos
TTITLE2=Tontona
TTITLE3=Fogueira
TTITLE4=Fazenda Pau D'Alho
TTITLE5=Cantinho da Felicidade
TTITLE6=Velha do guarda-chuva
TTITLE7=Duas estradas
TTITLE8=Linha de fogo
TTITLE9=Porta aberta
TTITLE10=Piadas
TTITLE11=Amigo da onça
TTITLE12=A maior fera do mundo
EXTD=
EXTT0=
EXTT1=
EXTT2=
EXTT3=
EXTT4=
EXTT5=
EXTT6=
EXTT7=
EXTT8=
EXTT9=
EXTT10=
EXTT11=
EXTT12=
PLAYORDER=
